<?xml version="1.0" standalone="no"?>
<!DOCTYPE svg PUBLIC "-//W3C//DTD SVG 20010904//EN"
 "http://www.w3.org/TR/2001/REC-SVG-20010904/DTD/svg10.dtd">
<svg version="1.0" xmlns="http://www.w3.org/2000/svg"
 width="644.000000pt" height="644.000000pt" viewBox="0 0 644.000000 644.000000"
 preserveAspectRatio="xMidYMid meet">
<metadata>
Created by potrace 1.11, written by Peter Selinger 2001-2013
</metadata>
<g transform="translate(0.000000,644.000000) scale(0.100000,-0.100000)"
fill="#000000" stroke="none">
<path d="M0 3220 l0 -3220 3220 0 3220 0 0 3220 0 3220 -3220 0 -3220 0 0
-3220z m4754 1690 c34 -13 50 -44 35 -71 -15 -30 -76 -54 -214 -84 -233 -51
-414 -122 -570 -223 -113 -72 -289 -221 -533 -451 -148 -139 -552 -561 -566
-592 -7 -15 -3 -28 14 -52 35 -46 1356 -1452 1421 -1512 74 -67 156 -105 324
-149 77 -20 151 -45 165 -55 36 -26 37 -56 4 -78 -35 -23 -187 -24 -569 -5
-158 8 -335 10 -450 6 -217 -8 -298 -1 -326 27 -24 24 -24 32 4 63 14 17 44
31 87 42 82 21 135 47 156 79 15 23 15 27 -5 67 -21 45 -974 1106 -1127 1256
-53 52 -91 82 -102 80 -16 -3 -17 -29 -15 -347 3 -438 18 -777 38 -859 42
-174 119 -245 310 -287 92 -20 130 -37 145 -65 13 -24 0 -54 -27 -65 -38 -14
-163 -17 -283 -5 -69 6 -168 15 -220 20 -71 7 -172 4 -400 -11 -168 -12 -331
-19 -363 -16 -74 7 -109 29 -105 65 4 35 44 55 168 82 169 38 256 92 295 187
33 78 36 216 33 1388 -3 1110 -4 1162 -22 1213 -38 104 -112 153 -304 197
-128 30 -175 59 -170 104 2 15 13 30 27 37 33 17 1240 16 1273 0 13 -7 24 -22
26 -37 5 -43 -43 -74 -150 -99 -166 -39 -216 -70 -254 -160 -18 -42 -19 -81
-22 -626 -2 -480 -1 -583 11 -592 33 -28 94 28 634 579 299 306 548 568 561
591 25 47 28 97 7 137 -16 31 -15 31 -130 75 -58 23 -83 38 -95 58 -14 26 -13
29 8 50 22 23 27 23 355 30 182 4 384 9 447 11 274 7 450 6 474 -3z"/>
</g>
</svg>
