<?xml version="1.0" standalone="no"?><!-- Generator: Gravit.io --><svg xmlns="http://www.w3.org/2000/svg" xmlns:xlink="http://www.w3.org/1999/xlink" style="isolation:isolate" viewBox="0 0 322 322" width="322" height="322"><defs><clipPath id="_clipPath_iILEa6h4qirAWtSrk7pANxeqRxYrkqdi"><rect width="322" height="322"/></clipPath></defs><g clip-path="url(#_clipPath_iILEa6h4qirAWtSrk7pANxeqRxYrkqdi)"><rect width="322" height="322" style="fill:rgb(39,124,234)"/><path d=" M 83.875 240.875 L 83.875 240.875 Q 76.625 240.875 76.625 238.125 L 76.625 238.125 L 76.625 238.125 Q 76.625 236.375 78.625 235.375 L 78.625 235.375 L 78.625 235.375 Q 80.625 234.375 84.875 233.625 L 84.875 233.625 L 84.875 233.625 Q 94.375 231.875 98 227.75 L 98 227.75 L 98 227.75 Q 101.625 223.625 101.625 214.375 L 101.625 214.375 L 101.625 101.875 L 101.625 101.875 Q 101.625 93.375 98 89.625 L 98 89.625 L 98 89.625 Q 94.375 85.875 84.875 84.125 L 84.875 84.125 L 84.875 84.125 Q 76.625 82.625 76.625 79.125 L 76.625 79.125 L 76.625 79.125 Q 76.625 76.375 83.875 76.375 L 83.875 76.375 L 99.375 76.625 L 99.375 76.625 Q 103.125 76.875 111.875 76.875 L 111.875 76.875 L 111.875 76.875 Q 118.875 76.875 121.625 76.625 L 121.625 76.625 L 136.125 76.375 L 136.125 76.375 Q 143.375 76.375 143.375 79.125 L 143.375 79.125 L 143.375 79.125 Q 143.375 82.625 135.125 84.125 L 135.125 84.125 L 135.125 84.125 Q 126.375 85.625 124 89.625 L 124 89.625 L 124 89.625 Q 121.625 93.625 121.625 101.875 L 121.625 101.875 L 121.625 148.625 L 121.625 148.625 Q 121.625 153.375 122.875 153.375 L 122.875 153.375 L 122.875 153.375 Q 124.125 153.375 126.125 152 L 126.125 152 L 126.125 152 Q 128.125 150.625 129.625 148.875 L 129.625 148.875 L 179.625 97.875 L 179.625 97.875 Q 183.375 94.125 183.375 90.375 L 183.375 90.375 L 183.375 90.375 Q 183.375 88.375 182.125 86.75 L 182.125 86.75 L 182.125 86.75 Q 180.875 85.125 178.625 84.625 L 178.625 84.625 L 178.625 84.625 Q 174.375 83.375 172.625 82.375 L 172.625 82.375 L 172.625 82.375 Q 170.875 81.375 170.875 79.625 L 170.875 79.625 L 170.875 79.625 Q 170.875 76.875 178.125 76.875 L 178.125 76.875 L 191.625 76.875 L 191.625 76.875 Q 197.375 76.875 223.625 76.125 L 223.625 76.125 L 232.125 75.875 L 232.125 75.875 Q 234.625 75.875 236.125 76.625 L 236.125 76.625 L 236.125 76.625 Q 237.625 77.375 237.625 78.625 L 237.625 78.625 L 237.625 78.625 Q 237.625 82.125 229.375 83.625 L 229.375 83.625 L 229.375 83.625 Q 205.875 87.875 191.375 100.125 L 191.375 100.125 L 191.375 100.125 Q 177.875 111.375 167.25 121.875 L 167.25 121.875 L 167.25 121.875 Q 156.625 132.375 143.375 146.875 L 143.375 146.875 L 143.375 146.875 Q 142.875 147.375 142.875 148.125 L 142.875 148.125 L 142.875 148.125 Q 142.875 149.625 144.625 151.375 L 144.625 151.375 L 205.125 215.875 L 205.125 215.875 Q 213.875 225.625 218.125 228.5 L 218.125 228.5 L 218.125 228.5 Q 222.375 231.375 232.625 233.625 L 232.625 233.625 L 232.625 233.625 Q 237.125 234.625 239 235.625 L 239 235.625 L 239 235.625 Q 240.875 236.625 240.875 238.125 L 240.875 238.125 L 240.875 238.125 Q 240.875 240.875 233.625 240.875 L 233.625 240.875 L 233.625 240.875 Q 223.625 240.875 215.625 240.125 L 215.625 240.125 L 215.625 240.125 Q 205.625 239.625 198.875 239.625 L 198.875 239.625 L 191.875 239.625 L 191.875 239.625 Q 188.625 239.875 178.625 239.875 L 178.625 239.875 L 178.625 239.875 Q 171.375 239.875 171.375 237.125 L 171.375 237.125 L 171.375 237.125 Q 171.375 235.375 172.875 234.5 L 172.875 234.5 L 172.875 234.5 Q 174.375 233.625 178.125 232.875 L 178.125 232.875 L 178.125 232.875 Q 185.125 231.125 185.125 227.875 L 185.125 227.875 L 185.125 227.875 Q 185.125 225.875 181.375 221.625 L 181.375 221.625 L 128.375 163.125 L 128.375 163.125 Q 124.125 158.875 122.625 158.875 L 122.625 158.875 L 122.625 158.875 Q 121.625 158.875 121.625 162.375 L 121.625 162.375 L 121.625 162.375 Q 121.625 177.625 122.875 212.125 L 122.875 212.125 L 122.875 212.125 Q 123.375 221.125 126.75 226.625 L 126.75 226.625 L 126.75 226.625 Q 130.125 232.125 138.875 233.625 L 138.875 233.625 L 138.875 233.625 Q 143.125 234.375 145.125 235.375 L 145.125 235.375 L 145.125 235.375 Q 147.125 236.375 147.125 238.125 L 147.125 238.125 L 147.125 238.125 Q 147.125 240.875 139.875 240.875 L 139.875 240.875 L 139.875 240.875 Q 131.875 240.875 125.375 239.875 L 125.375 239.875 L 125.375 239.875 Q 120.875 239.125 115.375 239.125 L 115.375 239.125 L 115.375 239.125 Q 111.125 239.125 106.75 239.5 L 106.75 239.5 L 106.75 239.5 Q 102.375 239.875 100.375 239.875 L 100.375 239.875 L 100.375 239.875 Q 90.875 240.875 83.875 240.875 L 83.875 240.875 L 83.875 240.875 Z " fill="rgb(255,255,255)"/></g></svg>
