<?xml version="1.0" standalone="no"?><!-- Generator: Gravit.io --><svg xmlns="http://www.w3.org/2000/svg" xmlns:xlink="http://www.w3.org/1999/xlink" style="isolation:isolate" viewBox="0 0 322 322" width="322" height="322"><defs><clipPath id="_clipPath_DqGQ6e03SH8kyzNaCIXWex5ao9g3B8XE"><rect width="322" height="322"/></clipPath></defs><g clip-path="url(#_clipPath_DqGQ6e03SH8kyzNaCIXWex5ao9g3B8XE)"><rect width="322" height="322" style="fill:rgb(39,124,234)"/><path d=" M 69.85 258.85 L 69.85 258.85 Q 61.15 258.85 61.15 255.55 L 61.15 255.55 L 61.15 255.55 Q 61.15 253.45 63.55 252.25 L 63.55 252.25 L 63.55 252.25 Q 65.95 251.05 71.05 250.15 L 71.05 250.15 L 71.05 250.15 Q 82.45 248.05 86.8 243.1 L 86.8 243.1 L 86.8 243.1 Q 91.15 238.15 91.15 227.05 L 91.15 227.05 L 91.15 92.05 L 91.15 92.05 Q 91.15 81.85 86.8 77.35 L 86.8 77.35 L 86.8 77.35 Q 82.45 72.85 71.05 70.75 L 71.05 70.75 L 71.05 70.75 Q 61.15 68.95 61.15 64.75 L 61.15 64.75 L 61.15 64.75 Q 61.15 61.45 69.85 61.45 L 69.85 61.45 L 88.45 61.75 L 88.45 61.75 Q 92.95 62.05 103.45 62.05 L 103.45 62.05 L 103.45 62.05 Q 111.85 62.05 115.15 61.75 L 115.15 61.75 L 132.55 61.45 L 132.55 61.45 Q 141.25 61.45 141.25 64.75 L 141.25 64.75 L 141.25 64.75 Q 141.25 68.95 131.35 70.75 L 131.35 70.75 L 131.35 70.75 Q 120.85 72.55 118 77.35 L 118 77.35 L 118 77.35 Q 115.15 82.15 115.15 92.05 L 115.15 92.05 L 115.15 148.15 L 115.15 148.15 Q 115.15 153.85 116.65 153.85 L 116.65 153.85 L 116.65 153.85 Q 118.15 153.85 120.55 152.2 L 120.55 152.2 L 120.55 152.2 Q 122.95 150.55 124.75 148.45 L 124.75 148.45 L 184.75 87.25 L 184.75 87.25 Q 189.25 82.75 189.25 78.25 L 189.25 78.25 L 189.25 78.25 Q 189.25 75.85 187.75 73.9 L 187.75 73.9 L 187.75 73.9 Q 186.25 71.95 183.55 71.35 L 183.55 71.35 L 183.55 71.35 Q 178.45 69.85 176.35 68.65 L 176.35 68.65 L 176.35 68.65 Q 174.25 67.45 174.25 65.35 L 174.25 65.35 L 174.25 65.35 Q 174.25 62.05 182.95 62.05 L 182.95 62.05 L 199.15 62.05 L 199.15 62.05 Q 206.05 62.05 237.55 61.15 L 237.55 61.15 L 247.75 60.85 L 247.75 60.85 Q 250.75 60.85 252.55 61.75 L 252.55 61.75 L 252.55 61.75 Q 254.35 62.65 254.35 64.15 L 254.35 64.15 L 254.35 64.15 Q 254.35 68.35 244.45 70.15 L 244.45 70.15 L 244.45 70.15 Q 216.25 75.25 198.85 89.95 L 198.85 89.95 L 198.85 89.95 Q 182.65 103.45 169.9 116.05 L 169.9 116.05 L 169.9 116.05 Q 157.15 128.65 141.25 146.05 L 141.25 146.05 L 141.25 146.05 Q 140.65 146.65 140.65 147.55 L 140.65 147.55 L 140.65 147.55 Q 140.65 149.35 142.75 151.45 L 142.75 151.45 L 215.35 228.85 L 215.35 228.85 Q 225.85 240.55 230.95 244 L 230.95 244 L 230.95 244 Q 236.05 247.45 248.35 250.15 L 248.35 250.15 L 248.35 250.15 Q 253.75 251.35 256 252.55 L 256 252.55 L 256 252.55 Q 258.25 253.75 258.25 255.55 L 258.25 255.55 L 258.25 255.55 Q 258.25 258.85 249.55 258.85 L 249.55 258.85 L 249.55 258.85 Q 237.55 258.85 227.95 257.95 L 227.95 257.95 L 227.95 257.95 Q 215.95 257.35 207.85 257.35 L 207.85 257.35 L 199.45 257.35 L 199.45 257.35 Q 195.55 257.65 183.55 257.65 L 183.55 257.65 L 183.55 257.65 Q 174.85 257.65 174.85 254.35 L 174.85 254.35 L 174.85 254.35 Q 174.85 252.25 176.65 251.2 L 176.65 251.2 L 176.65 251.2 Q 178.45 250.15 182.95 249.25 L 182.95 249.25 L 182.95 249.25 Q 191.35 247.15 191.35 243.25 L 191.35 243.25 L 191.35 243.25 Q 191.35 240.85 186.85 235.75 L 186.85 235.75 L 123.25 165.55 L 123.25 165.55 Q 118.15 160.45 116.35 160.45 L 116.35 160.45 L 116.35 160.45 Q 115.15 160.45 115.15 164.65 L 115.15 164.65 L 115.15 164.65 Q 115.15 182.95 116.65 224.35 L 116.65 224.35 L 116.65 224.35 Q 117.25 235.15 121.3 241.75 L 121.3 241.75 L 121.3 241.75 Q 125.35 248.35 135.85 250.15 L 135.85 250.15 L 135.85 250.15 Q 140.95 251.05 143.35 252.25 L 143.35 252.25 L 143.35 252.25 Q 145.75 253.45 145.75 255.55 L 145.75 255.55 L 145.75 255.55 Q 145.75 258.85 137.05 258.85 L 137.05 258.85 L 137.05 258.85 Q 127.45 258.85 119.65 257.65 L 119.65 257.65 L 119.65 257.65 Q 114.25 256.75 107.65 256.75 L 107.65 256.75 L 107.65 256.75 Q 102.55 256.75 97.3 257.2 L 97.3 257.2 L 97.3 257.2 Q 92.05 257.65 89.65 257.65 L 89.65 257.65 L 89.65 257.65 Q 78.25 258.85 69.85 258.85 L 69.85 258.85 L 69.85 258.85 Z " fill="rgb(255,255,255)"/></g></svg>